<svg xmlns="http://www.w3.org/2000/svg" viewBox="0 0 64 64" width="64" height="64">
  <defs>
    <linearGradient id="g" x1="0" y1="0" x2="1" y2="1">
      <stop offset="0" stop-color="#34ad78"/>
      <stop offset="1" stop-color="#157a50"/>
    </linearGradient>
  </defs>
  <rect width="64" height="64" rx="16" fill="url(#g)"/>
  <path d="M32 47c-1 0-1.9-.35-2.63-1.02C24.9 41.9 16 33.9 16 26.3 16 21.2 20 17 25 17c3 0 5.5 1.5 7 3.9 1.5-2.4 4-3.9 7-3.9 5 0 9 4.2 9 9.3 0 7.6-8.9 15.6-13.37 19.68C33.9 46.65 33 47 32 47z" fill="#fff"/>
  <circle cx="32" cy="28" r="3.4" fill="#157a50"/>
</svg>
